<svg xmlns="http://www.w3.org/2000/svg" version="1.1" xmlns:xlink="http://www.w3.org/1999/xlink" xmlns:svgjs="http://svgjs.dev/svgjs" width="1000" height="1000" viewBox="0 0 1000 1000"><rect width="1000" height="1000" fill="#000000"></rect><g transform="matrix(0.7,0,0,0.7,149.65000000000003,149.65000000000003)"><svg viewBox="0 0 280 280" data-background-color="#ffffff" preserveAspectRatio="xMidYMid meet" height="1000" width="1000" xmlns="http://www.w3.org/2000/svg" xmlns:xlink="http://www.w3.org/1999/xlink"><g id="tight-bounds" transform="matrix(1,0,0,1,0.13999999999998636,0.13999999999998636)"><svg viewBox="0 0 279.72 279.72" height="279.72" width="279.72"><g><svg viewBox="0 0 279.72 279.72" height="279.72" width="279.72"><g><svg viewBox="0 0 279.72 279.72" height="279.72" width="279.72"><g id="textblocktransform"><svg viewBox="0 0 279.72 279.72" height="279.72" width="279.72" id="textblock"><g><svg viewBox="0 0 279.72 279.72" height="279.72" width="279.72"><g transform="matrix(1,0,0,1,73.92936372216631,87.31460278699984)"><svg viewBox="0 0 131.8612725556674 105.09079442600033" height="105.09079442600033" width="131.8612725556674"><g><svg xmlns="http://www.w3.org/2000/svg" xmlns:xlink="http://www.w3.org/1999/xlink" version="1.1" x="0" y="0" viewBox="0 10.152000427246094 100 79.697998046875" enable-background="new 0 0 100 100" xml:space="preserve" height="105.09079442600033" width="131.8612725556674" class="icon-o-0" data-fill-palette-color="accent" id="o-0"><g fill="#50a060" data-fill-palette-color="accent"><g fill="#50a060" data-fill-palette-color="accent"><path d="M84.107 72.352H15.893L0 89.85h100L84.107 72.352zM33.171 82.354H12.717l2.18-2.513h18.999L33.171 82.354zM39.353 82.354l0.728-2.513h19.838l0.728 2.513H39.353zM66.104 79.842h19.002l2.177 2.514H66.827L66.104 79.842z" fill="#ffffff" data-fill-palette-color="accent"></path><g fill="#50a060" data-fill-palette-color="accent"><path d="M51.166 18.255c-0.031 0-0.063 0.001-0.094 0.001-0.028 0-0.061-0.001-0.092-0.001H51.166z" fill="#ffffff" data-fill-palette-color="accent"></path><path d="M50.447 10.152c-11.112 0-20.121 9.009-20.121 20.122 0 8.734 5.573 16.146 13.349 18.93l6.771 18.431 6.777-18.431c7.771-2.785 13.346-10.196 13.346-18.93C70.568 19.161 61.559 10.152 50.447 10.152zM58.036 29.938v9.056h-6.451v-5.413h-2.913v5.413h-6.456v-9.056h-2.499l10.411-10.613 3.744 3.818v-1.947h2.915v4.92l3.749 3.822H58.036z" fill="#ffffff" data-fill-palette-color="accent"></path></g></g></g></svg></g></svg></g><g><path d="M17.99 95.882c0.782-1.73 1.92-2.987 3.415-3.77 1.495-0.783 3.318-0.811 5.47-0.084v0c2.387 0.806 3.933 2.229 4.637 4.27 0.696 2.045 0.549 4.534-0.441 7.467v0l-2.433 7.208-26.635-8.989 1.961-5.808c1.016-3.009 2.356-5.138 4.022-6.386 1.657-1.244 3.578-1.497 5.762-0.761v0c1.689 0.57 2.878 1.456 3.568 2.658 0.697 1.204 0.921 2.602 0.674 4.195zM5.618 96.522l-1.407 4.171 10.246 3.458 1.973-5.847c0.57-1.689 0.573-3.197 0.011-4.526-0.561-1.335-1.635-2.27-3.222-2.805v0c-1.79-0.604-3.303-0.429-4.537 0.526-1.237 0.962-2.258 2.636-3.064 5.023zM29.484 103.187c0.78-2.311 0.917-4.258 0.412-5.843-0.503-1.591-1.728-2.715-3.677-3.374v0c-1.974-0.666-3.657-0.562-5.048 0.312-1.393 0.88-2.427 2.321-3.102 4.32v0l-2.05 6.076 11.636 3.927z" fill="#ffffff" data-fill-palette-color="primary"></path><path d="M33.242 47.184l9.571-10.134 1.047 1.335-8.073 8.549 7.95 7.507 6.976-7.387 1.228 1.159-6.976 7.387 8.812 8.322 8.411-8.907 1.228 1.159-9.737 10.31z" fill="#ffffff" data-fill-palette-color="primary"></path><path d="M132.499 28.739l-1.926 0.111-1.614-28.064 13.666-0.786-0.144 1.689-11.499 0.662 0.658 11.448 9.933-0.571 0.095 1.645-9.933 0.571z" fill="#ffffff" data-fill-palette-color="primary"></path><path d="M191.08 40.295l-2.355-14.671-5.689-2.174-4.592 12.016-1.803-0.689 10.035-26.258 6.186 2.364c6.065 2.318 8.203 5.817 6.414 10.499v0c-0.734 1.921-1.821 3.245-3.261 3.972-1.433 0.729-3.198 0.955-5.294 0.677v0l2.547 15.1zM183.624 21.91l4.647 1.776c4.606 1.76 7.633 0.747 9.08-3.04v0c0.703-1.84 0.656-3.425-0.14-4.755-0.795-1.337-2.484-2.499-5.07-3.487v0l-4.262-1.628z" fill="#ffffff" data-fill-palette-color="primary"></path><path d="M239.898 41.469l9.795 9.917-1.37 1.001-8.263-8.366-7.78 7.684 7.14 7.229-1.201 1.187-7.14-7.229-8.624 8.517 8.61 8.716-1.202 1.187-9.965-10.09z" fill="#ffffff" data-fill-palette-color="primary"></path><path d="M272.748 90.719l4.969 13.024-1.658 0.364-4.192-10.987-10.216 3.898 3.622 9.493-1.578 0.602-3.621-9.493-11.325 4.32 4.367 11.447-1.577 0.602-5.055-13.25z" fill="#ffffff" data-fill-palette-color="primary"></path><path d="M32.169 186.124l0.449 1.397-13.022-2.229-7.225 2.317-0.405-1.263 7.206-2.311 9.298-9.443 0.458 1.426-8.364 8.309z" fill="#ffffff" data-fill-palette-color="primary"></path><path d="M37.478 197.048c0.679 1.406 0.928 2.8 0.747 4.181-0.175 1.379-0.797 2.687-1.866 3.926-1.063 1.235-2.551 2.314-4.463 3.237v0c-1.882 0.909-3.632 1.4-5.248 1.474-1.619 0.068-3.032-0.255-4.239-0.967-1.213-0.709-2.163-1.775-2.85-3.199v0c-0.67-1.388-0.912-2.774-0.725-4.159 0.184-1.391 0.805-2.702 1.861-3.934 1.06-1.226 2.531-2.293 4.414-3.203v0c1.882-0.909 3.639-1.4 5.27-1.473 1.64-0.07 3.07 0.255 4.288 0.976 1.21 0.718 2.147 1.765 2.811 3.141zM36.438 197.55c-0.851-1.762-2.196-2.831-4.038-3.207-1.847-0.373-4.073 0.07-6.68 1.328v0c-2.558 1.235-4.258 2.692-5.099 4.371-0.838 1.685-0.837 3.399 0.005 5.142v0c0.874 1.81 2.222 2.9 4.046 3.27 1.814 0.367 4.018-0.076 6.612-1.329v0c2.607-1.259 4.333-2.721 5.181-4.387 0.85-1.66 0.841-3.39-0.027-5.188z" fill="#ffffff" data-fill-palette-color="primary"></path><path d="M50.679 218.608l-10.952 7.628c-1.561 1.088-3.108 1.528-4.64 1.321-1.532-0.207-2.878-1.143-4.039-2.808v0c-1.16-1.666-1.572-3.253-1.234-4.762 0.337-1.509 1.287-2.807 2.848-3.895v0l10.951-7.628 0.759 1.089-10.861 7.565c-1.347 0.938-2.161 1.991-2.442 3.158-0.283 1.177 0.043 2.436 0.977 3.778v0c0.934 1.341 2.001 2.076 3.201 2.204 1.2 0.128 2.465-0.271 3.795-1.199v0l10.861-7.565z" fill="#ffffff" data-fill-palette-color="primary"></path><path d="M48.69 244.326l2.791-9.814-2.909-3.003-6.344 6.148-0.924-0.953 13.866-13.435 3.161 3.263c3.105 3.205 3.421 6.005 0.948 8.401v0c-1.015 0.984-2.075 1.493-3.18 1.528-1.105 0.035-2.269-0.339-3.494-1.121v0l-2.796 10.141zM49.38 230.726l2.378 2.454c2.354 2.43 4.533 2.675 6.534 0.736v0c0.972-0.942 1.405-1.944 1.299-3.008-0.111-1.058-0.827-2.268-2.146-3.63v0l-2.182-2.252z" fill="#ffffff" data-fill-palette-color="primary"></path><path d="M74.785 263.187l-1.132-0.729 5.183-8.042-8.118-5.232-5.183 8.042-1.115-0.719 10.459-16.228 1.115 0.719-4.633 7.189 8.118 5.232 4.633-7.189 1.132 0.729z" fill="#ffffff" data-fill-palette-color="primary"></path><path d="M97.376 251.766c1.441 0.599 2.554 1.476 3.337 2.628 0.786 1.147 1.191 2.538 1.214 4.173 0.026 1.629-0.368 3.424-1.183 5.386v0c-0.803 1.93-1.783 3.46-2.943 4.589-1.165 1.126-2.435 1.825-3.809 2.094-1.377 0.276-2.796 0.111-4.257-0.496v0c-1.423-0.592-2.525-1.467-3.305-2.626-0.787-1.162-1.195-2.554-1.224-4.177-0.023-1.62 0.367-3.396 1.17-5.326v0c0.803-1.93 1.789-3.465 2.959-4.603 1.179-1.142 2.463-1.849 3.853-2.121 1.381-0.267 2.777-0.108 4.188 0.479zM96.932 252.833c-1.806-0.751-3.522-0.656-5.148 0.287-1.628 0.948-2.998 2.759-4.109 5.431v0c-1.091 2.623-1.393 4.841-0.906 6.655 0.493 1.816 1.633 3.096 3.422 3.839v0c1.856 0.772 3.588 0.69 5.196-0.245 1.599-0.931 2.952-2.727 4.057-5.387v0c1.111-2.673 1.43-4.913 0.956-6.721-0.468-1.806-1.624-3.092-3.468-3.859z" fill="#ffffff" data-fill-palette-color="primary"></path><path d="M123.711 259.234l-2.2 19.279-1.267-0.276 1.062-9.416c0.354-3.297 0.697-6.15 1.03-8.56v0l-8.308 14.258-1.266-0.276-1.798-16.457c-0.209 0.805-0.884 2.989-2.023 6.554v0c-0.095 0.343-0.258 0.856-0.489 1.539v0l-2.909 9.159-1.247-0.272 5.952-18.462 1.856 0.403 1.657 16.108 8.075-13.99z" fill="#ffffff" data-fill-palette-color="primary"></path><path d="M131.188 259.891l9.552 0.544-0.236 1.144-8.058-0.459-0.427 7.495 6.964 0.397-0.066 1.154-6.964-0.397-0.474 8.318 8.399 0.479-0.066 1.154-9.723-0.554z" fill="#ffffff" data-fill-palette-color="primary"></path><path d="M161.254 257.635c1.537-0.273 2.946-0.136 4.228 0.411 1.28 0.541 2.372 1.494 3.275 2.858 0.901 1.357 1.538 3.081 1.91 5.173v0c0.366 2.058 0.366 3.875 0 5.451-0.373 1.577-1.065 2.85-2.077 3.819-1.011 0.976-2.294 1.602-3.851 1.879v0c-1.517 0.27-2.917 0.128-4.2-0.427-1.289-0.553-2.384-1.505-3.285-2.855-0.894-1.352-1.524-3.057-1.889-5.115v0c-0.366-2.058-0.364-3.882 0.006-5.473 0.376-1.598 1.076-2.886 2.1-3.864 1.018-0.971 2.279-1.589 3.783-1.857zM161.457 258.772c-1.926 0.343-3.319 1.349-4.179 3.02-0.859 1.677-1.035 3.94-0.528 6.79v0c0.497 2.797 1.44 4.827 2.829 6.091 1.395 1.263 3.046 1.724 4.952 1.386v0c1.979-0.352 3.393-1.355 4.242-3.011 0.844-1.647 1.013-3.889 0.509-6.725v0c-0.507-2.85-1.448-4.908-2.824-6.174-1.369-1.267-3.036-1.726-5.001-1.377z" fill="#ffffff" data-fill-palette-color="primary"></path><path d="M185.574 250.751l4.388 12.605c0.625 1.797 0.632 3.405 0.019 4.824-0.613 1.419-1.878 2.463-3.795 3.13v0c-1.917 0.667-3.557 0.635-4.918-0.097-1.362-0.732-2.355-1.997-2.981-3.794v0l-4.387-12.605 1.253-0.436 4.351 12.501c0.54 1.55 1.333 2.618 2.381 3.204 1.057 0.59 2.357 0.616 3.901 0.079v0c1.544-0.537 2.54-1.366 2.987-2.487 0.447-1.12 0.404-2.446-0.129-3.978v0l-4.351-12.5z" fill="#ffffff" data-fill-palette-color="primary"></path><path d="M209.8 259.61l-8.696-5.338-3.677 1.991 4.206 7.769-1.166 0.631-9.192-16.978 3.995-2.163c3.924-2.124 6.706-1.672 8.345 1.357v0c0.673 1.243 0.877 2.401 0.613 3.474-0.265 1.073-0.939 2.093-2.023 3.061v0l9.009 5.431zM196.892 255.273l3.004-1.627c2.975-1.611 3.8-3.642 2.473-6.093v0c-0.644-1.19-1.493-1.878-2.545-2.062-1.049-0.179-2.407 0.183-4.075 1.086v0l-2.757 1.493z" fill="#ffffff" data-fill-palette-color="primary"></path><path d="M235.013 239.59l-1.008 0.892-6.341-7.164-7.233 6.401 6.341 7.164-0.993 0.88-12.796-14.458 0.994-0.879 5.668 6.405 7.233-6.401-5.669-6.405 1.009-0.892z" fill="#ffffff" data-fill-palette-color="primary"></path><path d="M230.116 214.752c0.966-1.226 2.11-2.061 3.432-2.504 1.316-0.447 2.765-0.461 4.346-0.043 1.576 0.414 3.198 1.279 4.866 2.594v0c1.642 1.294 2.85 2.651 3.624 4.071 0.77 1.426 1.1 2.837 0.988 4.234-0.106 1.401-0.648 2.722-1.627 3.964v0c-0.954 1.21-2.094 2.035-3.42 2.474-1.331 0.444-2.782 0.461-4.353 0.051-1.566-0.415-3.17-1.27-4.812-2.564v0c-1.642-1.294-2.853-2.658-3.634-4.092-0.782-1.444-1.116-2.871-1.001-4.283 0.115-1.402 0.646-2.703 1.591-3.902zM231.024 215.467c-1.211 1.537-1.582 3.215-1.114 5.034 0.474 1.824 1.847 3.631 4.121 5.423v0c2.231 1.758 4.286 2.648 6.163 2.668 1.882 0.016 3.422-0.737 4.62-2.258v0c1.244-1.579 1.633-3.268 1.167-5.069-0.465-1.791-1.829-3.578-4.092-5.361v0c-2.273-1.792-4.345-2.703-6.214-2.734-1.865-0.037-3.415 0.729-4.651 2.297z" fill="#ffffff" data-fill-palette-color="primary"></path><path d="M244.426 191.41l17.966 7.33-0.608 1.145-8.779-3.568c-3.078-1.232-5.732-2.334-7.962-3.305v0l11.481 11.852-0.608 1.145-16.33-2.718c0.718 0.419 2.639 1.659 5.763 3.719v0c0.304 0.184 0.754 0.48 1.349 0.888v0l8.032 5.276-0.599 1.127-16.166-10.721 0.891-1.678 15.956 2.759-11.286-11.556z" fill="#ffffff" data-fill-palette-color="primary"></path><path d="M247.08 184.389l3.107-9.049 1.038 0.537-2.621 7.632 7.101 2.438 2.265-6.596 1.093 0.375-2.265 6.597 7.88 2.705 2.732-7.956 1.093 0.376-3.163 9.21z" fill="#ffffff" data-fill-palette-color="primary"></path><path d="M2.087 144.913c0-5.93 4.808-10.738 10.738-10.738 5.93 0 10.738 4.808 10.738 10.738 0 5.93-4.808 10.738-10.738 10.739-5.93 0-10.738-4.808-10.738-10.739z" fill="#ffffff" data-fill-palette-color="primary"></path><path d="M255.101 144.913c0-5.93 4.808-10.738 10.739-10.738 5.93 0 10.738 4.808 10.738 10.738 0 5.93-4.808 10.738-10.738 10.739-5.93 0-10.738-4.808-10.739-10.739z" fill="#ffffff" data-fill-palette-color="primary"></path></g></svg></g></svg></g></svg></g></svg></g><defs></defs></svg><rect width="279.72" height="279.72" fill="none" stroke="none" visibility="hidden"></rect></g></svg></g></svg>